# xmcd CD database file
#
# Track frame offsets:
#	150
#	14945
#	28830
#	44297
#	60572
#	72842
#	87245
#	100275
#	112340
#	126117
#	139027
#	151840
#	164977
#	178902
#	193190
#
# Disc length: 2773 seconds
#
# Revision: 2
# Processed by: cddbd v1.5.2PL0 Copyright (c) Steve Scherf et al.
# Submitted via: CDex 1.51
#
DISCID=e30ad30f
DTITLE=Poly Panou - Megales Epityhies
DYEAR=1997
DGENRE=Folk
TTITLE0=Pare To Daktylidi Mou
TTITLE1=Anapse to Tsigaro
TTITLE2=Ta Dakrya
TTITLE3=Fotia
TTITLE4=Tis Tavernas To Roloi
TTITLE5=Monoterma
TTITLE6=Alla Mou Len Ta Matia Sou
TTITLE7=Stis Amartias To Strati
TTITLE8=Irthes Arga
TTITLE9=Horismos
TTITLE10=Ferte Mou Na Pio
TTITLE11=An Thes Na Mathis(Dolce Vita)
TTITLE12=Den s'Allazo Den s'Allazo
TTITLE13=To Les Ma Den To Kanis
TTITLE14=Pame Se Kentra Kosmika
EXTD=YEAR: 1997
EXTT0=
EXTT1=
EXTT2=
EXTT3=
EXTT4=
EXTT5=
EXTT6=
EXTT7=
EXTT8=
EXTT9=
EXTT10=
EXTT11=
EXTT12=
EXTT13=
EXTT14=
PLAYORDER=
